<svg width="67" height="68" fill="none" xmlns="http://www.w3.org/2000/svg">
  <path d="M2 33.63A31.72 31.72 0 0 1 33.8 2c3.25 0 6.37.48 9.31 1.38" stroke="#fff" stroke-width="4" stroke-linecap="round" stroke-linejoin="round"/>
  <path fill-rule="evenodd" clip-rule="evenodd" d="M26.96 40.43a9.72 9.72 0 0 0 13.7 0c3.77-3.76 19.42-30.18 18.04-31.56-1.38-1.37-27.96 14.19-31.74 17.95a9.59 9.59 0 0 0 0 13.61Zm6.85-4.05a2.76 2.76 0 0 0 2.76-2.75 2.76 2.76 0 0 0-2.76-2.75 2.76 2.76 0 0 0-2.77 2.75 2.76 2.76 0 0 0 2.77 2.75Z" fill="#fff"/>
  <ellipse cx="6.15" cy="50.13" rx="2.77" ry="2.75" fill="#fff"/>
  <ellipse cx="17.21" cy="61.13" rx="2.77" ry="2.75" fill="#fff"/>
  <ellipse cx="33.81" cy="65.25" rx="2.77" ry="2.75" fill="#fff"/>
  <ellipse cx="50.4" cy="61.13" rx="2.77" ry="2.75" fill="#fff"/>
  <ellipse cx="60.09" cy="50.13" rx="2.77" ry="2.75" fill="#fff"/>
  <ellipse cx="64.23" cy="33.63" rx="2.77" ry="2.75" fill="#fff"/>
</svg>
